<svg width="34" height="34" viewBox="0 0 34 34" fill="none" xmlns="http://www.w3.org/2000/svg">
<g clip-path="url(#clip0_211_2056)">
<path d="M31.3208 9.33532C31.3208 9.35886 31.3208 9.38828 31.3147 9.40593C31.284 9.63542 31.284 9.8649 31.3024 10.1003C31.3147 10.1591 31.3269 10.218 31.376 10.265C31.4557 10.3533 31.5783 10.3356 31.6273 10.2297C31.6519 10.1768 31.6519 10.1238 31.6396 10.0708C31.5783 9.84725 31.566 9.61188 31.5599 9.38239C31.5599 9.37063 31.5599 9.35297 31.5599 9.33532C31.6273 9.32944 31.6887 9.32355 31.7438 9.32355C31.7868 9.31767 31.8235 9.31178 31.8542 9.29413C31.9461 9.24706 31.9461 9.14703 31.848 9.09996C31.8112 9.0823 31.7622 9.07642 31.7193 9.07642C31.566 9.0823 31.4128 9.0823 31.2595 9.0823C31.2043 9.0823 31.1491 9.08819 31.0939 9.09407C31.0633 9.09996 31.0265 9.09996 31.002 9.11761C30.9591 9.13526 30.9346 9.16468 30.9346 9.20587C30.9407 9.24706 30.9591 9.2706 31.002 9.28825C31.0265 9.3059 31.0572 9.31178 31.0878 9.31178C31.1614 9.31767 31.2411 9.32944 31.3208 9.33532ZM33.0068 9.606C33.0068 9.61188 33.0129 9.61776 33.0129 9.61776C33.0374 9.77664 33.062 9.92963 33.0803 10.0826C33.0865 10.1356 33.0926 10.1826 33.1294 10.2238C33.2091 10.3239 33.3317 10.3121 33.3869 10.2062C33.4114 10.1532 33.4175 10.1003 33.4053 10.0414C33.3685 9.8649 33.3501 9.68837 33.3133 9.51773C33.2888 9.41182 33.2581 9.31178 33.2275 9.21764C33.2091 9.1588 33.1662 9.1176 33.0926 9.11172C33.019 9.09996 32.9639 9.13526 32.9332 9.18822C32.8964 9.23529 32.8658 9.28236 32.8412 9.33532C32.7983 9.42947 32.7615 9.52362 32.7125 9.61188C32.7063 9.63542 32.7002 9.65307 32.688 9.67072C32.6818 9.65895 32.6757 9.65307 32.6757 9.65307C32.596 9.50597 32.5224 9.35886 32.4427 9.21764C32.4305 9.20587 32.4243 9.1941 32.4182 9.18233C32.3814 9.12938 32.3385 9.09996 32.2711 9.09996C32.2098 9.10584 32.1607 9.14114 32.1301 9.1941C32.1178 9.21764 32.1178 9.23529 32.1117 9.25883C32.0871 9.44712 32.0565 9.63542 32.032 9.82371C32.0197 9.92963 32.0136 10.0355 32.0136 10.1415C32.0074 10.165 32.0136 10.1944 32.0258 10.218C32.0381 10.265 32.0749 10.2944 32.1239 10.3003C32.1852 10.3062 32.2281 10.2886 32.2465 10.2415C32.2649 10.2062 32.2711 10.1768 32.2772 10.1473C32.3017 10.0414 32.3201 9.9414 32.3385 9.84136C32.3508 9.78252 32.3569 9.73545 32.3753 9.67072C32.3875 9.69426 32.3998 9.71191 32.4121 9.72956C32.4672 9.80018 32.5224 9.87079 32.5899 9.92963C32.6573 9.9767 32.7125 9.97082 32.7677 9.91786C32.7799 9.90609 32.7861 9.90021 32.7983 9.88844C32.8535 9.80606 32.9209 9.72368 32.9761 9.6413C32.9884 9.62953 32.9945 9.61776 33.0068 9.606Z" fill="#3A3B7B"/>
<path d="M18.8805 9.45087C18.8379 9.56269 18.8298 9.64326 18.8495 9.71022C18.8712 9.80128 18.9276 9.83109 19.0042 9.80793C19.7243 9.63702 21.3033 10.1221 21.888 10.2573C22.0258 10.2857 22.138 10.1149 22.0439 9.96174C21.9066 9.81342 20.3282 9.1784 19.726 9.14378C19.4899 9.13097 19.0679 9.07287 18.8805 9.45087Z" fill="#3A3B7B"/>
<path d="M25.0518 7.39523C25.1285 7.43775 25.1714 7.4783 25.1926 7.52362C25.2241 7.58306 25.2075 7.62418 25.1545 7.64517C24.6785 7.86814 24.0451 8.82808 23.7894 9.15915C23.7274 9.23531 23.5845 9.19106 23.5629 9.06581C23.5673 8.9242 24.1288 7.88245 24.4422 7.59871C24.5653 7.48793 24.7688 7.27057 25.0518 7.39523Z" fill="#3A3B7B"/>
<path d="M21.261 6.92273C21.3533 6.85603 21.4491 6.83266 21.498 6.876C22.2162 7.4655 22.597 8.39903 22.8329 9.25365C22.8418 9.27356 22.8423 9.30213 22.8352 9.33194C22.8323 9.35741 22.8129 9.38433 22.7821 9.40515C22.7492 9.42814 22.7208 9.43514 22.7075 9.41533C22.3928 9.00442 20.595 7.40564 21.261 6.92273Z" fill="#3A3B7B"/>
<path d="M6.05253 17.1431C6.22466 17.0201 6.41179 16.9177 6.60981 16.8382C6.81699 16.7814 7.03782 16.7908 7.23893 16.8651C7.43998 16.9395 7.61043 17.0746 7.72437 17.2501C7.8263 17.4252 7.86617 17.6273 7.83804 17.826C7.8099 18.0247 7.71526 18.2093 7.56832 18.3519C7.45443 18.4675 7.32511 18.5682 7.18382 18.6515C6.5541 19.0419 5.91877 19.411 5.28347 19.8014C5.15348 19.8991 5.01557 19.9868 4.87108 20.0635C4.65129 20.1687 4.40011 20.1969 4.16097 20.1432C3.92183 20.0895 3.70977 19.9572 3.56146 19.7693C3.45059 19.6363 3.35702 19.4908 3.28281 19.3361C2.68095 18.1219 2.05679 16.9131 1.47721 15.6776C1.20971 15.1427 0.992372 14.5276 0.780604 13.9339C0.688983 13.7614 0.671092 13.5614 0.730739 13.3764C0.790387 13.1915 0.922867 13.0361 1.1 12.9434C1.27713 12.8508 1.48494 12.8281 1.67923 12.8802C1.87352 12.9323 2.03897 13.0552 2.14038 13.2225C2.45208 13.6201 2.72801 14.0424 2.96516 14.4848C3.56703 15.5546 4.14104 16.6243 4.72061 17.6619C4.75436 17.7193 4.79157 17.7746 4.83207 17.8277C5.2683 17.6517 5.67859 17.4215 6.05253 17.1431Z" fill="#3A3B7B"/>
<path d="M12.2755 16.77C10.899 18.3158 8.59183 17.9253 7.43268 15.9356C6.60789 14.5236 6.463 12.1915 8.25748 10.7206C8.64067 10.4127 9.09887 10.2029 9.58937 10.1109C10.1908 10.0281 10.804 10.13 11.3415 10.4018C11.879 10.6737 12.3131 11.1016 12.582 11.6246C13.5628 13.3362 13.4235 15.5184 12.2755 16.77ZM11.7182 13.165C11.572 12.7444 11.2786 12.3853 10.8878 12.1487C10.6667 11.9975 10.398 11.9239 10.1271 11.9405C9.85604 11.957 9.59928 12.0627 9.3999 12.2396C8.603 12.9189 8.43578 14.5289 9.01536 15.4863C9.08925 15.6425 9.19772 15.7812 9.3333 15.8929C9.46888 16.0045 9.62825 16.0864 9.80024 16.1327C9.97223 16.1791 10.1527 16.1889 10.329 16.1613C10.5053 16.1337 10.6732 16.0694 10.821 15.973C11.253 15.6516 11.5699 15.209 11.7277 14.7067C11.8855 14.2044 11.8764 13.6674 11.7015 13.1704L11.7182 13.165Z" fill="#3A3B7B"/>
<path d="M17.8929 13.8389C17.752 13.8679 17.6064 13.8697 17.4647 13.8439C17.3231 13.8182 17.1882 13.7656 17.0681 13.6891C16.963 13.6314 16.8725 13.5521 16.8032 13.4568C16.7339 13.3615 16.6874 13.2527 16.6672 13.1381C16.6469 13.0235 16.6534 12.9061 16.6861 12.7942C16.7188 12.6823 16.777 12.5787 16.8564 12.491C16.9947 12.3146 17.1911 12.1884 17.4136 12.1326C17.9947 11.9708 18.5929 11.8721 19.197 11.8385C19.3297 11.8236 19.4641 11.8344 19.5924 11.8702C19.7208 11.9059 19.8403 11.9659 19.9442 12.0467C20.048 12.1274 20.134 12.2272 20.1971 12.3402C20.2601 12.4533 20.299 12.5773 20.3115 12.7049C20.4857 13.3321 20.5047 13.9897 20.3672 14.6251C19.8657 16.679 18.1381 17.385 16.1987 16.7272C15.6544 16.5513 15.177 16.2235 14.8278 15.7858C14.3621 15.2587 14.0318 14.634 13.8637 13.9619C13.7275 13.3634 13.7424 12.7424 13.9073 12.1507C14.0721 11.5589 14.382 11.0135 14.8111 10.5601C15.2184 10.0673 15.7469 9.67948 16.3492 9.43154C16.7298 9.23021 17.1752 9.17296 17.5976 9.27108C17.6934 9.29653 17.7803 9.34612 17.8495 9.41472C17.9186 9.48331 17.9673 9.5684 17.9907 9.66117C18.014 9.75393 18.011 9.85099 17.9821 9.94229C17.9531 10.0336 17.8992 10.1158 17.826 10.1804C17.6869 10.3013 17.5357 10.4088 17.3746 10.5013C16.8792 10.8041 16.448 11.1943 16.104 11.6512C15.8785 11.9469 15.7232 12.2865 15.6491 12.6459C15.5749 13.0054 15.5837 13.376 15.6749 13.7319C15.8013 14.2171 16.0818 14.6526 16.4774 14.9781C17.7034 16.0479 19.2973 15.0156 19.0186 13.5554C18.6118 13.6517 18.2551 13.7533 17.8929 13.8389Z" fill="#3A3B7B"/>
<path d="M25.3829 16.8556C23.5718 17.9254 21.5098 16.8556 21.0584 14.6092C20.7296 13.0046 21.3538 10.7581 23.5383 9.90232C24.0031 9.72415 24.5073 9.6616 25.004 9.72046C25.6008 9.82531 26.1482 10.1073 26.5691 10.5266C26.99 10.946 27.2633 11.4815 27.3501 12.0578C27.718 13.9673 26.882 16.0052 25.3829 16.8556ZM26.0127 13.2559C26.0121 12.8116 25.8484 12.3817 25.5501 12.0418C25.3907 11.8316 25.1603 11.681 24.8981 11.6156C24.6359 11.5503 24.3582 11.5742 24.1123 11.6834C23.1315 12.0899 22.4405 13.5662 22.6913 14.652C22.7104 14.8224 22.7681 14.9867 22.8603 15.1335C22.9525 15.2802 23.077 15.4059 23.2251 15.5017C23.3732 15.5974 23.5413 15.661 23.7176 15.6879C23.894 15.7148 24.0744 15.7045 24.2461 15.6575C24.7645 15.4837 25.2134 15.1588 25.5301 14.7283C25.8468 14.2977 26.0155 13.783 26.0127 13.2559Z" fill="#3A3B7B"/>
<path d="M29.1817 17.3049C29.1543 17.5006 29.0471 17.678 28.8836 17.7978C28.72 17.9177 28.5135 17.9703 28.3095 17.9441C28.1056 17.9178 27.9208 17.8149 27.796 17.6579C27.671 17.5009 27.6163 17.3027 27.6436 17.107C27.6709 16.9112 27.7782 16.7339 27.9417 16.614C28.1053 16.4941 28.3118 16.4416 28.5157 16.4678C28.7197 16.4941 28.9044 16.597 29.0294 16.7539C29.1543 16.9109 29.2091 17.1091 29.1817 17.3049ZM28.6968 10.0895C28.8028 9.93411 28.9583 9.8158 29.1401 9.75218C29.3219 9.68856 29.5202 9.68305 29.7056 9.73646C29.8939 9.7817 30.0604 9.88768 30.1771 10.0367C30.2937 10.1856 30.3535 10.3686 30.3464 10.5548C30.3219 10.8536 30.2753 11.1503 30.2071 11.4427C30.0232 12.4322 29.8449 13.4217 29.6498 14.4005C29.5607 14.791 29.4436 15.1654 29.3154 15.5612C29.2709 15.6849 29.1964 15.7967 29.0981 15.8875C29.037 15.9557 28.959 16.0081 28.8713 16.0397C28.7835 16.0713 28.6889 16.0812 28.5961 16.0684C28.5033 16.0556 28.4154 16.0206 28.3404 15.9665C28.2655 15.9124 28.206 15.8411 28.1675 15.7591C28.1012 15.612 28.0652 15.454 28.0616 15.2938C28.0616 14.6305 28.0616 13.9619 28.1061 13.2933C28.1819 12.3392 28.3309 11.3917 28.552 10.4585C28.578 10.3335 28.627 10.214 28.6968 10.1055V10.0895Z" fill="#3A3B7B"/>
<path fill-rule="evenodd" clip-rule="evenodd" d="M3.69796 21.603C3.63216 21.7439 3.61411 21.9011 3.64627 22.0524C3.66766 22.2518 3.71464 22.4479 3.78615 22.6362C3.87542 22.8669 3.97532 23.095 4.0985 23.3762C4.12682 23.4408 4.15643 23.5084 4.1874 23.5794C4.35351 23.9603 4.56194 24.4471 4.83995 25.1515C4.91864 25.3516 4.98851 25.5534 5.05888 25.7565C5.0873 25.8386 5.11583 25.921 5.14503 26.0035C5.2497 26.2969 5.4298 26.5605 5.66853 26.7695C5.7699 26.8843 5.90436 26.968 6.05513 27.0098C6.20885 27.0525 6.37233 27.0498 6.52441 27.0021C6.67649 26.9543 6.81006 26.8638 6.90779 26.7421C7.00359 26.6229 7.06057 26.4792 7.07164 26.3291C7.1338 26.0367 7.11258 25.7335 7.01014 25.4516C6.84754 24.9835 6.66233 24.5147 6.44874 24.0562L6.44776 24.0542C6.0964 23.3368 5.73924 22.6245 5.36519 21.9118L5.36239 21.9068C5.25288 21.7211 5.11058 21.5552 4.94186 21.4163C4.83233 21.2924 4.68125 21.2088 4.5144 21.18C4.34399 21.1506 4.16825 21.1802 4.01853 21.2637C3.8769 21.3413 3.76463 21.4601 3.69796 21.603Z" fill="#3A3B7B"/>
<path fill-rule="evenodd" clip-rule="evenodd" d="M9.06454 19.8366C8.51361 19.6997 7.93824 19.6797 7.37853 19.7782C6.94501 19.8191 6.51863 19.9151 6.22256 20.1052C6.07198 20.202 5.95023 20.3262 5.88251 20.4841C5.81441 20.6429 5.80572 20.8245 5.86152 21.0268C5.96341 21.3974 6.09572 21.7577 6.22756 22.1169L6.24892 22.1751L6.24943 22.1764C6.64641 23.2198 7.04717 24.2597 7.45158 25.296C7.49874 25.4593 7.56543 25.6169 7.6503 25.7655L7.65189 25.7682C7.76401 25.9528 7.90782 26.118 8.07724 26.2566C8.16197 26.3329 8.26675 26.3857 8.38037 26.4092C8.4951 26.433 8.61442 26.4261 8.72533 26.3892C8.83628 26.3524 8.93452 26.287 9.00939 26.2002C9.08304 26.1148 9.13127 26.012 9.14899 25.9025C9.22208 25.6051 9.19867 25.2934 9.08183 25.0091C9.04537 24.9135 9.01677 24.8157 8.98663 24.7128C8.97658 24.6785 8.96639 24.6436 8.95564 24.608C9.88134 24.2608 10.8663 23.7938 11.2127 22.7074C11.3483 22.332 11.3596 21.9255 11.245 21.5436C11.1303 21.1613 10.895 20.8224 10.5715 20.5737C10.1312 20.2255 9.61686 19.9739 9.06454 19.8366ZM7.53743 21.1691C7.55566 21.1641 7.57403 21.1594 7.59244 21.155C8.1951 21.0641 8.81169 21.1853 9.32869 21.4961C9.55653 21.6482 9.64986 21.8172 9.66589 21.9798C9.68243 22.1472 9.61901 22.3286 9.49161 22.503C9.25087 22.8324 8.81155 23.096 8.41472 23.1452C8.12542 22.5057 7.83164 21.8404 7.53743 21.1691Z" fill="#3A3B7B"/>
<path d="M12.7375 18.6661C13.3936 18.3753 14.2062 18.3251 14.8422 18.5296C15.0024 18.5743 15.1413 18.6712 15.2353 18.8035C15.3287 18.9351 15.3718 19.0936 15.3574 19.252C15.3564 19.3549 15.3301 19.4561 15.2806 19.5474C15.2302 19.6403 15.1573 19.7203 15.0679 19.7804C14.9786 19.8406 14.8754 19.8793 14.7672 19.8931C14.659 19.9069 14.5489 19.8956 14.4462 19.8599L14.4384 19.8572L14.4311 19.8535C14.3786 19.8271 14.3228 19.8072 14.265 19.7943L14.2614 19.7935C13.814 19.6795 13.3921 19.8684 13.2379 20.1006C13.1644 20.2113 13.1553 20.3231 13.2165 20.4247C13.2821 20.5336 13.4429 20.6558 13.7683 20.7429C13.8578 20.7664 13.9496 20.7892 14.0426 20.8123C14.3 20.8763 14.5674 20.9427 14.826 21.0348L14.827 21.0351C16.0199 21.4708 16.4642 22.3731 16.3121 23.2217C16.1616 24.0609 15.4314 24.8247 14.3332 25.0049C13.9336 25.0899 13.5178 25.0733 13.1268 24.9568C12.7349 24.84 12.3816 24.6268 12.1021 24.3383L12.0948 24.3308C12.0066 24.2221 11.9472 24.0944 11.9209 23.959C11.8967 23.8367 11.9094 23.7103 11.9576 23.5948C12.0054 23.4799 12.0864 23.3805 12.1908 23.308C12.3012 23.2259 12.4342 23.1767 12.5734 23.1664C12.7122 23.1561 12.851 23.1851 12.9729 23.2496C13.0946 23.306 13.2078 23.378 13.3094 23.4636L13.3113 23.4652C13.491 23.6229 13.7085 23.6641 13.917 23.626C14.1286 23.5873 14.3276 23.4672 14.4555 23.3078C14.5827 23.1494 14.6337 22.9612 14.5731 22.7785C14.5122 22.5945 14.3289 22.3883 13.9263 22.2159C13.821 22.173 13.7119 22.1384 13.5984 22.1048C13.5678 22.0957 13.5367 22.0867 13.5052 22.0775C13.4212 22.053 13.3349 22.0278 13.2502 22.0001C13.1918 21.981 13.134 21.9629 13.0767 21.945C12.9201 21.896 12.7674 21.8483 12.6204 21.7843C12.3006 21.6798 12.0243 21.4791 11.8327 21.212C11.6402 20.9438 11.5434 20.6231 11.5565 20.2977C11.5576 19.5048 12.0779 18.9586 12.7375 18.6661Z" fill="#3A3B7B"/>
<path d="M21.0552 18.5817C20.928 18.5221 20.7873 18.4938 20.6459 18.4993C20.5044 18.5049 20.3666 18.5442 20.245 18.6137C20.1241 18.6827 20.0228 18.7793 19.9503 18.895C19.8838 18.9924 19.8378 19.1013 19.8148 19.2157C19.7919 19.3299 19.7924 19.4474 19.8164 19.5614C19.8401 19.7079 19.8664 19.8504 19.8923 19.9909C19.9353 20.2235 19.977 20.4508 20.0046 20.6826L20.0056 20.6885C20.0684 21.052 20.1013 21.4196 20.1042 21.788L20.1045 21.7932C20.1259 22.191 19.9847 22.5811 19.7111 22.8807L19.7067 22.886C19.6177 22.9955 19.4987 23.0791 19.3629 23.1274C19.2272 23.1758 19.0801 23.1869 18.9382 23.1595C18.7963 23.1322 18.6651 23.0675 18.5593 22.9727C18.4535 22.8778 18.3771 22.7562 18.339 22.6222C18.2577 22.3398 18.2107 22.0492 18.1987 21.7564L18.3376 19.634C18.3396 19.6063 18.342 19.5779 18.3444 19.5492C18.3496 19.4847 18.3551 19.419 18.3573 19.3578C18.3606 19.2677 18.3578 19.175 18.3359 19.0873C18.3135 18.9977 18.2709 18.9124 18.1954 18.8398C18.1206 18.7679 18.0197 18.7148 17.8927 18.6787C17.663 18.6149 17.4687 18.6169 17.3069 18.6829C17.1449 18.7488 17.034 18.8712 16.9555 19.0126C16.8776 19.1528 16.8275 19.3188 16.7896 19.485C16.7616 19.6084 16.739 19.7379 16.7175 19.8612C16.7101 19.9036 16.7029 19.9453 16.6955 19.9859L16.6953 19.9871C16.5805 20.6631 16.5464 21.3495 16.5935 22.033C16.6023 22.4024 16.6825 22.7669 16.8302 23.1081C16.9968 23.5484 17.2986 23.9298 17.6957 24.2021C18.0937 24.4749 18.5686 24.6252 19.0575 24.6332C19.5465 24.6411 20.0264 24.5063 20.4338 24.2466C20.8404 23.9872 21.1556 23.6155 21.3376 23.1807C21.5922 22.6267 21.7117 22.0242 21.6871 21.4192C21.6721 20.9775 21.6471 20.5324 21.6222 20.0895C21.6099 19.8723 21.5977 19.6555 21.5868 19.4401C21.5813 19.2241 21.507 19.0148 21.374 18.8404C21.2917 18.7302 21.1822 18.6413 21.0552 18.5817Z" fill="#3A3B7B"/>
<path d="M25.5579 21.9097C25.545 21.9254 25.5314 21.9417 25.5172 21.9587C25.4137 21.3857 25.3178 20.813 25.2218 20.2394C25.1873 20.0336 25.1527 19.8269 25.1179 19.6208L25.1139 19.5979L25.1012 19.578C25.0773 19.5406 25.0749 19.5039 25.0749 19.4258V19.4167L25.0734 19.4078C25.0474 19.2463 24.9714 19.0961 24.8551 18.9767C24.7392 18.8577 24.5887 18.7748 24.4231 18.7388C24.2578 18.6997 24.0841 18.7083 23.9238 18.7637C23.764 18.8189 23.6246 18.918 23.5232 19.0488C23.4389 19.1491 23.3698 19.2604 23.318 19.3793C23.2005 19.6355 23.0819 19.8923 22.963 20.1498L22.9609 20.1543C22.6641 20.7972 22.3653 21.4444 22.0752 22.0967L22.0743 22.0988C21.8962 22.5217 21.7491 22.9674 21.6026 23.4116C21.5734 23.5003 21.5441 23.5889 21.5146 23.6774C21.4617 23.8176 21.4386 23.9665 21.4465 24.1153C21.4369 24.2486 21.4701 24.3816 21.5418 24.4962C21.6149 24.6132 21.7244 24.7052 21.8548 24.7594C21.9931 24.8176 22.1476 24.8299 22.2941 24.7945C22.4402 24.7591 22.5699 24.6782 22.6629 24.5644C22.7816 24.4243 22.8837 24.2714 22.967 24.1095C23.2128 23.6269 23.4477 23.1385 23.6815 22.6522C23.772 22.4641 23.8599 22.2957 23.9599 22.1122C23.9668 22.1348 23.9738 22.1569 23.981 22.179C24.0858 22.6219 24.2628 23.0462 24.5053 23.4363C24.5512 23.5189 24.6151 23.5911 24.6927 23.6479C24.7712 23.7055 24.8618 23.7458 24.9583 23.7664C25.0547 23.7869 25.1546 23.787 25.2511 23.7666C25.3474 23.7464 25.4383 23.7059 25.5169 23.6487L25.6723 23.537L26.8792 22.5613L26.8078 22.9978C26.7099 23.5978 26.6127 24.1929 26.5094 24.788C26.4418 25.0518 26.4419 25.3274 26.5097 25.5911C26.539 25.7395 26.6138 25.8761 26.7245 25.9836C26.8361 26.0919 26.979 26.1655 27.1347 26.1948C27.2904 26.2241 27.4518 26.2079 27.5977 26.1481C27.7416 26.0893 27.8639 25.9908 27.9495 25.8653C28.1485 25.6284 28.2723 25.3415 28.3063 25.0389C28.3576 24.6115 28.4154 24.1782 28.4733 23.7452C28.54 23.246 28.6067 22.7469 28.663 22.2574L28.6632 22.2559C28.7174 21.7201 28.7437 21.1821 28.7418 20.6438C28.7537 20.4737 28.7096 20.3042 28.6155 20.1594C28.5212 20.014 28.3814 19.9011 28.2163 19.8364C28.0445 19.7614 27.8522 19.7414 27.6676 19.7793C27.4843 19.8169 27.3183 19.9097 27.1938 20.0441C26.9712 20.2416 26.7624 20.4531 26.5686 20.677L26.5673 20.6785C26.3559 20.9315 26.1458 21.1893 25.9372 21.4456C25.8103 21.6013 25.6837 21.7567 25.5579 21.9097Z" fill="#3A3B7B"/>
</g>
<defs>
<clipPath id="clip0_211_2056">
<rect width="32.7153" height="20.186" fill="white" transform="translate(0.696106 6.854)"/>
</clipPath>
</defs>
</svg>
