<svg width="34" height="34" viewBox="0 0 34 34" fill="none" xmlns="http://www.w3.org/2000/svg">
<g clip-path="url(#clip0_211_2046)">
<path fill-rule="evenodd" clip-rule="evenodd" d="M9.74504 2.7843C13.5893 2.7843 16.7057 5.90071 16.7057 9.745V2.7843H23.6664C27.5107 2.7843 30.6271 5.90071 30.6271 9.745C30.6271 13.5892 27.5107 16.7057 23.6664 16.7057C27.5107 16.7057 30.6271 19.8221 30.6271 23.6664C30.6271 25.5752 29.8587 27.3046 28.6144 28.5621L28.5884 28.5884L28.5653 28.6113C27.3075 29.8574 25.5769 30.6271 23.6664 30.6271C21.769 30.6271 20.0489 29.8679 18.7932 28.6367C18.777 28.6207 18.7607 28.6045 18.7445 28.5884C18.7292 28.5731 18.714 28.5578 18.6989 28.5424C17.4661 27.2866 16.7057 25.5653 16.7057 23.6664C16.7057 27.5106 13.5893 30.6271 9.74504 30.6271C5.90075 30.6271 2.78435 27.5106 2.78435 23.6664V16.7057H9.74504C5.90075 16.7057 2.78435 13.5892 2.78435 9.745C2.78435 5.90071 5.90075 2.7843 9.74504 2.7843ZM15.3136 9.745C15.3136 12.8204 12.8205 15.3136 9.74504 15.3136V4.17644C12.8205 4.17644 15.3136 6.66957 15.3136 9.745ZM29.235 23.6664C29.235 20.5909 26.7419 18.0978 23.6664 18.0978C20.591 18.0978 18.0979 20.5909 18.0979 23.6664H29.235ZM4.17649 18.0978V23.6664C4.17649 26.7418 6.66961 29.2349 9.74504 29.2349C12.8205 29.2349 15.3136 26.7418 15.3136 23.6664V18.0978H4.17649ZM18.0979 15.3136V4.17644H23.6664C26.7419 4.17644 29.235 6.66957 29.235 9.745C29.235 12.8204 26.7419 15.3136 23.6664 15.3136H18.0979Z" fill="#263238"/>
</g>
<defs>
<clipPath id="clip0_211_2046">
<rect width="27.8428" height="27.8428" fill="white" transform="translate(2.78435 2.7843)"/>
</clipPath>
</defs>
</svg>
