<svg width="18" height="18" viewBox="0 0 18 18" fill="none" xmlns="http://www.w3.org/2000/svg">
<g clip-path="url(#clip0_1110_857)">
<path fill-rule="evenodd" clip-rule="evenodd" d="M17.0303 0.96966C17.2341 1.17339 17.3031 1.47581 17.2079 1.74775L11.9579 16.7478C11.8563 17.038 11.5878 17.2368 11.2806 17.2494C10.9733 17.2619 10.6895 17.0856 10.5646 16.8046L7.6818 10.3182L1.1954 7.43535C0.91439 7.31046 0.738092 7.02668 0.750627 6.71942C0.763163 6.41216 0.961991 6.14368 1.25224 6.0421L16.2522 0.792097C16.5242 0.696918 16.8266 0.765932 17.0303 0.96966ZM9.14456 9.91609L11.1671 14.4667L14.7064 4.35425L9.14456 9.91609ZM13.6457 3.29359L3.53331 6.83294L8.0839 8.85543L13.6457 3.29359Z" fill="white"/>
</g>
<defs>
<clipPath id="clip0_1110_857">
<rect width="18" height="18" fill="white"/>
</clipPath>
</defs>
</svg>
